<?xml version="1.0" standalone="no"?>
<!DOCTYPE svg PUBLIC "-//W3C//DTD SVG 20010904//EN"
 "http://www.w3.org/TR/2001/REC-SVG-20010904/DTD/svg10.dtd">
<svg version="1.0" xmlns="http://www.w3.org/2000/svg"
 width="80" height="80" viewBox="0 0 80 320"
 preserveAspectRatio="xMidYMid meet">

<g transform="translate(0.000000,320.000000) scale(0.100000,-0.100000)"
fill="#000000" stroke="none">
<path d="M1490 3096 c-69 -39 -154 -94 -190 -122 -61 -48 -141 -99 -271 -172
-53 -30 -58 -36 -103 -132 -31 -66 -68 -124 -107 -170 -59 -68 -60 -71 -66
-141 -6 -69 -8 -75 -54 -125 -63 -69 -66 -76 -88 -191 -25 -125 -43 -167 -95
-223 -24 -25 -50 -64 -59 -87 -16 -41 -16 -43 9 -73 22 -25 25 -38 23 -83 -2
-38 3 -63 18 -92 l21 -39 0 67 c1 72 12 109 22 68 3 -14 12 -27 19 -29 11 -4
13 6 8 48 -5 44 -3 58 15 83 l22 31 7 -27 c4 -15 11 -61 14 -103 l8 -76 18 29
c10 15 19 25 19 22 1 -78 37 -297 39 -237 2 48 24 118 37 118 8 0 14 5 14 11
0 5 4 8 9 5 4 -3 11 -36 14 -73 6 -76 50 -235 74 -272 l16 -25 19 24 c53 66
66 103 76 220 6 63 14 131 19 150 8 31 10 26 16 -50 4 -47 7 -121 7 -165 0
-79 1 -80 40 -123 38 -41 40 -46 40 -106 0 -41 5 -69 16 -82 14 -18 15 -17 9
19 -4 27 -3 37 4 32 6 -3 11 -14 12 -23 0 -9 14 35 31 98 54 210 53 197 29
266 -22 60 -22 64 -6 135 8 41 22 118 30 171 8 54 23 115 34 136 31 60 49 151
38 192 -12 48 -4 112 19 143 11 14 47 42 82 61 34 20 62 40 62 45 0 5 -13 14
-30 19 -27 10 -30 15 -28 51 1 22 -4 47 -11 55 -10 12 -9 21 5 45 14 24 15 33
5 45 -34 41 36 96 132 103 53 4 67 2 96 -19 19 -12 43 -40 54 -61 18 -34 18
-44 7 -96 -9 -44 -9 -63 -1 -80 11 -20 157 -98 174 -93 5 1 6 -2 3 -7 -3 -5 1
-25 9 -45 8 -19 15 -47 15 -60 0 -14 7 -41 17 -60 l16 -35 17 22 c10 12 20 32
24 44 4 13 14 30 22 38 10 9 18 43 21 88 5 68 4 75 -18 95 -29 27 -33 27 -47
0 -10 -20 -11 -19 -6 12 5 33 0 41 -50 95 -43 47 -55 67 -56 93 0 19 4 31 10
27 5 -3 8 0 5 7 -3 7 4 31 15 53 11 21 20 48 20 58 0 16 7 13 40 -17 22 -20
42 -36 43 -36 2 0 2 13 -1 29 -2 16 1 32 7 35 6 4 11 1 12 -6 0 -7 5 -2 10 11
16 41 33 11 20 -35 -19 -68 -14 -110 15 -129 14 -9 44 -34 67 -55 l41 -39 15
22 c9 12 15 26 13 31 -2 5 3 13 10 17 10 7 11 12 0 26 -6 10 -16 28 -22 41 -5
12 -14 22 -20 22 -6 0 -8 5 -5 10 10 17 35 11 60 -15 27 -26 31 -25 15 5 -6
12 -7 21 0 25 5 3 6 13 3 22 -4 11 -3 14 6 9 6 -4 9 -16 6 -26 -3 -10 -1 -21
5 -25 17 -10 11 33 -11 82 -14 31 -20 60 -17 90 l3 45 -100 96 c-89 86 -121
109 -285 202 -102 58 -187 106 -190 106 -3 1 -61 -30 -130 -70z m491 -434 c-7
-2 -18 1 -23 6 -8 8 -4 9 13 5 13 -4 18 -8 10 -11z m-1045 -454 l29 -33 -32
29 c-31 28 -38 36 -30 36 2 0 16 -15 33 -32z m70 -70 c4 -7 4 -10 -1 -6 -4 4
-15 2 -24 -5 -14 -11 -14 -10 -2 6 16 20 18 21 27 5z m142 -658 c-13 -188 -28
-219 -23 -49 2 77 9 147 16 162 7 15 13 26 15 25 1 -2 -2 -64 -8 -138z"/>
<path d="M1463 2495 c-29 -12 -32 -17 -27 -43 3 -16 1 -38 -4 -49 -6 -11 -8
-44 -5 -76 5 -51 8 -57 29 -57 12 0 30 -7 39 -16 23 -24 2 -51 -71 -92 -63
-36 -94 -60 -94 -74 0 -4 9 -3 20 4 10 7 22 9 26 6 9 -10 -3 -38 -17 -38 -8 0
-7 5 2 17 13 15 12 15 -8 2 -13 -8 -23 -17 -23 -22 0 -4 5 -5 10 -2 6 3 10 2
10 -4 0 -5 -5 -13 -11 -17 -7 -4 -9 -24 -6 -53 6 -53 -14 -149 -47 -230 -14
-33 -28 -101 -36 -166 -7 -60 -19 -121 -26 -135 -8 -16 -10 -38 -5 -60 l7 -35
7 33 c8 38 23 41 39 7 21 -46 26 -15 8 46 -21 70 -21 70 36 166 41 67 60 122
66 186 5 48 22 34 34 -28 6 -33 17 -80 24 -105 l13 -45 -56 -105 c-68 -127
-93 -191 -114 -284 -8 -39 -17 -80 -20 -91 -3 -13 7 -35 27 -60 18 -22 41 -60
52 -85 25 -58 64 -100 90 -95 16 3 18 2 8 -10 -9 -11 -9 -19 3 -35 7 -11 17
-17 22 -12 5 4 5 2 1 -5 -4 -7 -4 -24 0 -39 6 -22 8 -24 16 -10 5 9 13 14 19
11 5 -4 9 -2 9 4 0 5 3 17 7 27 5 13 3 15 -7 9 -9 -5 -11 -4 -6 3 4 7 -6 26
-23 44 -16 18 -36 43 -43 56 -11 21 -10 26 7 38 11 8 25 12 31 10 18 -7 26 22
13 47 -7 12 -25 39 -42 60 -35 45 -33 51 35 145 24 33 51 74 60 91 9 17 21 31
27 31 5 0 15 -26 21 -57 6 -32 25 -103 41 -157 16 -55 29 -113 29 -129 0 -17
7 -67 15 -112 14 -71 14 -90 1 -157 -14 -74 -45 -150 -66 -163 -6 -3 -41 -15
-78 -25 -83 -23 -99 -20 -307 56 -143 53 -151 57 -173 95 l-23 39 -89 0 -89 0
-61 -72 c-64 -77 -65 -79 -50 -109 8 -14 21 -19 53 -19 26 0 92 -18 167 -46
147 -54 209 -63 278 -41 37 12 61 14 98 8 97 -17 220 -53 264 -78 39 -21 151
-62 172 -63 4 0 0 16 -8 35 -8 20 -12 40 -9 44 4 8 161 6 324 -3 l63 -4 -61
34 c-51 28 -72 34 -122 34 -57 0 -251 18 -257 25 -2 1 4 18 12 36 8 19 19 74
25 122 7 50 25 121 42 164 45 114 46 143 9 247 -24 68 -30 97 -25 125 7 33 7
104 2 351 -2 88 -5 100 -40 167 -22 44 -37 87 -37 108 0 40 47 142 59 129 5
-5 25 -33 45 -63 30 -45 35 -59 30 -90 -5 -30 -1 -43 19 -67 14 -16 32 -53 41
-83 15 -50 14 -56 -5 -113 -11 -33 -18 -68 -16 -77 3 -11 5 -8 6 7 0 12 6 22
12 22 8 0 10 -16 6 -50 -3 -27 -3 -50 1 -50 4 0 21 9 39 19 25 16 33 30 42 71
10 45 9 56 -10 92 -18 36 -20 52 -15 117 7 76 0 113 -38 196 -28 62 -48 132
-60 208 -7 43 -19 84 -27 91 -8 7 -45 26 -82 41 -68 28 -107 65 -107 100 0 10
5 35 11 55 24 79 -19 140 -98 140 -26 -1 -63 -7 -80 -15z m-136 -1372 c-4 -3
1 -12 11 -19 17 -12 25 -64 10 -64 -4 0 -8 5 -8 11 0 5 -4 8 -9 5 -4 -3 -7 6
-5 19 1 14 -2 27 -7 31 -9 5 -3 24 8 24 4 0 3 -3 0 -7z"/>
<path d="M2197 2409 c4 -13 8 -18 11 -10 2 7 -1 18 -6 23 -8 8 -9 4 -5 -13z"/>
<path d="M2150 2392 c0 -18 22 -62 31 -62 5 0 3 12 -3 28 -15 33 -28 50 -28
34z"/>
<path d="M2185 2310 c3 -5 8 -10 11 -10 2 0 4 5 4 10 0 6 -5 10 -11 10 -5 0
-7 -4 -4 -10z"/>
<path d="M1756 1823 c-6 -24 4 -58 38 -147 26 -64 46 -122 46 -129 0 -22 20
17 20 40 0 12 -16 52 -35 89 -21 41 -35 81 -35 104 0 20 -6 45 -14 55 -13 18
-14 17 -20 -12z"/>
<path d="M1347 1584 c-49 -91 -54 -108 -37 -119 6 -4 10 6 10 21 0 22 3 25 12
16 17 -17 81 118 70 148 -7 19 -14 10 -55 -66z"/>
<path d="M1821 1464 c0 -11 3 -14 6 -6 3 7 2 16 -1 19 -3 4 -6 -2 -5 -13z"/>
<path d="M1835 1333 c1 -43 3 -84 3 -91 3 -21 22 -3 23 21 1 18 2 17 9 -7 5
-16 7 -33 4 -38 -3 -4 0 -8 5 -8 6 0 11 12 11 26 0 23 2 25 16 13 15 -12 16
-11 9 10 -6 20 -4 23 9 18 10 -4 16 -1 16 7 0 7 6 19 14 26 8 6 12 18 9 26 -3
8 1 14 8 14 11 0 11 2 -1 10 -10 6 -17 5 -23 -5 -4 -8 -13 -15 -18 -15 -6 0
-7 5 -3 11 5 8 1 8 -14 0 -12 -6 -24 -17 -28 -24 -6 -9 -4 -9 8 1 11 9 18 10
23 2 4 -6 1 -9 -6 -8 -7 2 -16 -8 -20 -22 -6 -22 -7 -23 -8 -4 -1 12 -10 33
-22 48 -13 16 -18 33 -14 46 3 11 2 20 -3 20 -5 0 -8 -35 -7 -77z m29 -19 c3
-8 2 -12 -4 -9 -6 3 -10 10 -10 16 0 14 7 11 14 -7z"/>
<path d="M1539 1247 c-16 -23 -15 -102 1 -112 8 -5 26 122 19 129 -2 2 -11 -6
-20 -17z"/>
<path d="M1520 800 c0 -5 5 -10 11 -10 5 0 7 5 4 10 -3 6 -8 10 -11 10 -2 0
-4 -4 -4 -10z"/>
<path d="M970 386 c0 -3 14 -13 31 -21 29 -16 31 -15 27 2 -2 11 -14 19 -31
21 -15 2 -27 1 -27 -2z"/>
</g>
</svg>
